<svg width="1512" height="93" viewBox="0 0 1512 93" fill="none" xmlns="http://www.w3.org/2000/svg">
<rect width="1512" height="93" fill="black"/>
<rect y="10" width="9" height="9" fill="white"/>
<rect x="31" y="10" width="9" height="9" fill="white"/>
<rect x="62" y="10" width="9" height="9" fill="white"/>
<rect x="93" y="10" width="9" height="9" fill="white"/>
<rect x="124" y="10" width="9" height="9" fill="white"/>
<rect x="155" y="10" width="9" height="9" fill="white"/>
<rect x="186" y="10" width="9" height="9" fill="white"/>
<rect x="217" y="10" width="9" height="9" fill="white"/>
<rect x="248" y="10" width="9" height="9" fill="white"/>
<rect x="279" y="10" width="9" height="9" fill="white"/>
<rect x="310" y="10" width="9" height="9" fill="white"/>
<rect x="341" y="10" width="9" height="9" fill="white"/>
<rect x="372" y="10" width="9" height="9" fill="white"/>
<rect x="403" y="10" width="9" height="9" fill="white"/>
<rect x="434" y="10" width="9" height="9" fill="white"/>
<rect x="465" y="10" width="9" height="9" fill="white"/>
<rect x="496" y="10" width="9" height="9" fill="white"/>
<rect x="527" y="10" width="9" height="9" fill="white"/>
<rect x="558" y="10" width="9" height="9" fill="white"/>
<rect x="589" y="10" width="9" height="9" fill="white"/>
<rect x="620" y="10" width="9" height="9" fill="white"/>
<rect x="651" y="10" width="9" height="9" fill="white"/>
<rect x="682" y="10" width="9" height="9" fill="white"/>
<rect x="713" y="10" width="9" height="9" fill="white"/>
<rect x="744" y="10" width="9" height="9" fill="white"/>
<rect x="775" y="10" width="9" height="9" fill="white"/>
<rect x="806" y="10" width="9" height="9" fill="white"/>
<rect x="837" y="10" width="9" height="9" fill="white"/>
<rect x="868" y="10" width="9" height="9" fill="white"/>
<rect x="899" y="10" width="9" height="9" fill="white"/>
<rect x="930" y="10" width="9" height="9" fill="white"/>
<rect x="961" y="10" width="9" height="9" fill="white"/>
<rect x="992" y="10" width="9" height="9" fill="white"/>
<rect x="1023" y="10" width="9" height="9" fill="white"/>
<rect x="1054" y="10" width="9" height="9" fill="white"/>
<rect x="1085" y="10" width="9" height="9" fill="white"/>
<rect x="1116" y="10" width="9" height="9" fill="white"/>
<rect x="1147" y="10" width="9" height="9" fill="white"/>
<rect x="1178" y="10" width="9" height="9" fill="white"/>
<rect x="1209" y="10" width="9" height="9" fill="white"/>
<rect x="1240" y="10" width="9" height="9" fill="white"/>
<rect x="1271" y="10" width="9" height="9" fill="white"/>
<rect x="1302" y="10" width="9" height="9" fill="white"/>
<rect x="1333" y="10" width="9" height="9" fill="white"/>
<rect x="1364" y="10" width="9" height="9" fill="white"/>
<rect x="1395" y="10" width="9" height="9" fill="white"/>
<rect x="1426" y="10" width="9" height="9" fill="white"/>
<rect x="1457" y="10" width="9" height="9" fill="white"/>
<rect x="1488" y="10" width="9" height="9" fill="white"/>
<rect y="74" width="9" height="9" fill="white"/>
<rect x="31" y="74" width="9" height="9" fill="white"/>
<rect x="62" y="74" width="9" height="9" fill="white"/>
<rect x="93" y="74" width="9" height="9" fill="white"/>
<rect x="124" y="74" width="9" height="9" fill="white"/>
<rect x="155" y="74" width="9" height="9" fill="white"/>
<rect x="186" y="74" width="9" height="9" fill="white"/>
<rect x="217" y="74" width="9" height="9" fill="white"/>
<rect x="248" y="74" width="9" height="9" fill="white"/>
<rect x="279" y="74" width="9" height="9" fill="white"/>
<rect x="310" y="74" width="9" height="9" fill="white"/>
<rect x="341" y="74" width="9" height="9" fill="white"/>
<rect x="372" y="74" width="9" height="9" fill="white"/>
<rect x="403" y="74" width="9" height="9" fill="white"/>
<rect x="434" y="74" width="9" height="9" fill="white"/>
<rect x="465" y="74" width="9" height="9" fill="white"/>
<rect x="496" y="74" width="9" height="9" fill="white"/>
<rect x="527" y="74" width="9" height="9" fill="white"/>
<rect x="558" y="74" width="9" height="9" fill="white"/>
<rect x="589" y="74" width="9" height="9" fill="white"/>
<rect x="620" y="74" width="9" height="9" fill="white"/>
<rect x="651" y="74" width="9" height="9" fill="white"/>
<rect x="682" y="74" width="9" height="9" fill="white"/>
<rect x="713" y="74" width="9" height="9" fill="white"/>
<rect x="744" y="74" width="9" height="9" fill="white"/>
<rect x="775" y="74" width="9" height="9" fill="white"/>
<rect x="806" y="74" width="9" height="9" fill="white"/>
<rect x="837" y="74" width="9" height="9" fill="white"/>
<rect x="868" y="74" width="9" height="9" fill="white"/>
<rect x="899" y="74" width="9" height="9" fill="white"/>
<rect x="930" y="74" width="9" height="9" fill="white"/>
<rect x="961" y="74" width="9" height="9" fill="white"/>
<rect x="992" y="74" width="9" height="9" fill="white"/>
<rect x="1023" y="74" width="9" height="9" fill="white"/>
<rect x="1054" y="74" width="9" height="9" fill="white"/>
<rect x="1085" y="74" width="9" height="9" fill="white"/>
<rect x="1116" y="74" width="9" height="9" fill="white"/>
<rect x="1147" y="74" width="9" height="9" fill="white"/>
<rect x="1178" y="74" width="9" height="9" fill="white"/>
<rect x="1209" y="74" width="9" height="9" fill="white"/>
<rect x="1240" y="74" width="9" height="9" fill="white"/>
<rect x="1271" y="74" width="9" height="9" fill="white"/>
<rect x="1302" y="74" width="9" height="9" fill="white"/>
<rect x="1333" y="74" width="9" height="9" fill="white"/>
<rect x="1364" y="74" width="9" height="9" fill="white"/>
<rect x="1395" y="74" width="9" height="9" fill="white"/>
<rect x="1426" y="74" width="9" height="9" fill="white"/>
<rect x="1457" y="74" width="9" height="9" fill="white"/>
<rect x="1488" y="74" width="9" height="9" fill="white"/>
</svg>
